<svg width="63" height="62" viewBox="0 0 63 62" fill="none" xmlns="http://www.w3.org/2000/svg">
<g clip-path="url(#clip0_2990_803)">
<path fill-rule="evenodd" clip-rule="evenodd" d="M36.58 43.9893C43.7538 43.9893 49.5693 38.1738 49.5693 31C49.5693 23.8262 43.7538 18.0107 36.58 18.0107C29.4062 18.0107 23.5907 23.8262 23.5907 31C23.5907 38.1738 29.4062 43.9893 36.58 43.9893ZM36.58 46C44.8643 46 51.58 39.2843 51.58 31C51.58 22.7157 44.8643 16 36.58 16C28.2957 16 21.58 22.7157 21.58 31C21.58 39.2843 28.2957 46 36.58 46Z" fill="#FFB000"/>
<path fill-rule="evenodd" clip-rule="evenodd" d="M19.58 17C19.58 16.4477 20.0277 16 20.58 16H36.58C37.1323 16 37.58 16.4477 37.58 17C37.58 17.5523 37.1323 18 36.58 18H20.58C20.0277 18 19.58 17.5523 19.58 17Z" fill="#FFB000"/>
<path fill-rule="evenodd" clip-rule="evenodd" d="M19.58 45C19.58 44.4477 20.0277 44 20.58 44H37.58C38.1323 44 38.58 44.4477 38.58 45C38.58 45.5523 38.1323 46 37.58 46H20.58C20.0277 46 19.58 45.5523 19.58 45Z" fill="#FFB000"/>
<path fill-rule="evenodd" clip-rule="evenodd" d="M12.58 32C12.58 31.4477 13.0277 31 13.58 31H22.58C23.1323 31 23.58 31.4477 23.58 32C23.58 32.5523 23.1323 33 22.58 33H13.58C13.0277 33 12.58 32.5523 12.58 32Z" fill="#FFB000"/>
<path fill-rule="evenodd" clip-rule="evenodd" d="M42.0979 24.0672C42.5866 24.3244 42.7743 24.9291 42.517 25.4179L36.5489 36.7574C36.4009 37.0386 36.128 37.2327 35.8139 37.2803C35.4997 37.328 35.1816 37.2234 34.9569 36.9987L30.7791 32.821C30.3886 32.4305 30.3886 31.7973 30.7791 31.4068C31.1697 31.0163 31.8028 31.0163 32.1934 31.4068L35.4112 34.6247L40.7472 24.4864C41.0044 23.9976 41.6091 23.81 42.0979 24.0672Z" fill="#FFB000"/>
</g>
<defs>
<clipPath id="clip0_2990_803">
<rect width="40" height="40" fill="white" transform="translate(11.58 11)"/>
</clipPath>
</defs>
</svg>
