<svg width="63" height="62" viewBox="0 0 63 62" fill="none" xmlns="http://www.w3.org/2000/svg">
<path fill-rule="evenodd" clip-rule="evenodd" d="M33.5537 22.8281C29.3519 21.4275 24.8093 21.4275 20.6075 22.8281C20.1474 22.9814 19.6502 22.7328 19.4968 22.2728C19.3435 21.8127 19.5921 21.3155 20.0521 21.1622C24.6144 19.6414 29.5468 19.6414 34.109 21.1622C34.569 21.3155 34.8177 21.8127 34.6643 22.2728C34.511 22.7328 34.0137 22.9814 33.5537 22.8281Z" fill="#E73F3A"/>
<path fill-rule="evenodd" clip-rule="evenodd" d="M34.621 18.3016C29.8125 16.2409 24.3695 16.2409 19.5609 18.3016C19.1152 18.4927 18.599 18.2862 18.408 17.8405C18.217 17.3948 18.4235 16.8786 18.8692 16.6876C24.1195 14.4375 30.0625 14.4375 35.3127 16.6876C35.7584 16.8786 35.9649 17.3948 35.7739 17.8405C35.5828 18.2862 35.0667 18.4927 34.621 18.3016Z" fill="#E73F3A"/>
<path fill-rule="evenodd" clip-rule="evenodd" d="M34.9574 27.1263H18.0805C16.5647 27.1263 15.336 28.355 15.336 29.8707V42.2471C15.336 43.7628 16.5647 44.9916 18.0805 44.9916H34.9574C36.4731 44.9916 37.7018 43.7628 37.7018 42.2471V29.8707C37.7018 28.355 36.4731 27.1263 34.9574 27.1263ZM18.0805 25.3702C15.5949 25.3702 13.58 27.3852 13.58 29.8707V42.2471C13.58 44.7327 15.5949 46.7476 18.0805 46.7476H34.9574C37.4429 46.7476 39.4579 44.7327 39.4579 42.2471V29.8707C39.4579 27.3852 37.4429 25.3702 34.9574 25.3702H18.0805Z" fill="#E73F3A"/>
<path fill-rule="evenodd" clip-rule="evenodd" d="M47.0733 30.072L42.5728 32.8045C42.4252 32.8941 42.3351 33.0543 42.3351 33.2269V38.8917C42.3351 39.0643 42.4252 39.2245 42.5728 39.3141L47.0733 42.0466C47.4026 42.2465 47.824 42.0094 47.824 41.6241V30.4945C47.824 30.1092 47.4026 29.8721 47.0733 30.072ZM41.6614 31.3034C40.9894 31.7115 40.579 32.4407 40.579 33.2269V38.8917C40.579 39.6779 40.9894 40.4071 41.6614 40.8152L46.1619 43.5476C47.6616 44.4581 49.58 43.3785 49.58 41.6241V30.4945C49.58 28.7401 47.6616 27.6605 46.1619 28.571L41.6614 31.3034Z" fill="#E73F3A"/>
<path d="M20.5174 33.6961L19.2938 35.3276V36.5512L20.9253 38.9983C21.741 39.4062 23.454 40.2219 23.7803 40.2219C24.1066 40.2219 26.0915 40.4938 27.0432 40.6297C28.1308 40.3578 30.3876 39.814 30.7139 39.814C31.1216 39.814 32.8714 38.0643 33.1607 37.775C33.5686 37.3672 33.8408 36.6871 33.9767 36.1433L33.5689 34.5119L32.3453 33.2883L29.0825 31.6569C27.9948 31.5209 25.738 31.6569 25.4117 31.6569C25.0854 31.6569 23.1005 32.2007 22.1489 32.4726L20.5174 33.6961Z" stroke="#E10600" stroke-width="0.815716"/>
<path d="M26.3718 38.5744C27.8431 38.5744 29.0358 37.3817 29.0358 35.9104C29.0358 34.4392 27.8431 33.2465 26.3718 33.2465C24.9006 33.2465 23.7079 34.4392 23.7079 35.9104C23.7079 37.3817 24.9006 38.5744 26.3718 38.5744Z" fill="#E73F3A"/>
<path fill-rule="evenodd" clip-rule="evenodd" d="M21.5449 33.8768C20.4697 34.6895 20.0933 35.5826 20.0933 36.0594H18.3373C18.3373 34.8486 19.1423 33.4915 20.4861 32.4758C21.8648 31.4338 23.8844 30.6809 26.5287 30.6809V32.437C24.2224 32.437 22.5853 33.0905 21.5449 33.8768Z" fill="#E73F3A"/>
<path fill-rule="evenodd" clip-rule="evenodd" d="M31.4998 38.2418C32.5751 37.4291 32.9514 36.536 32.9514 36.0591H34.7074C34.7074 37.2699 33.9024 38.6271 32.5586 39.6427C31.1799 40.6847 29.1604 41.4376 26.5161 41.4376V39.6816C28.8224 39.6816 30.4595 39.0281 31.4998 38.2418Z" fill="#E73F3A"/>
<path fill-rule="evenodd" clip-rule="evenodd" d="M31.4998 33.8768C32.5751 34.6895 32.9514 35.5826 32.9514 36.0594H34.7074C34.7074 34.8486 33.9024 33.4915 32.5586 32.4758C31.1799 31.4338 29.1604 30.6809 26.5161 30.6809V32.437C28.8224 32.437 30.4595 33.0905 31.4998 33.8768Z" fill="#E73F3A"/>
<path fill-rule="evenodd" clip-rule="evenodd" d="M21.5449 38.2414C20.4697 37.4287 20.0933 36.5356 20.0933 36.0587H18.3373C18.3373 37.2695 19.1423 38.6267 20.4861 39.6423C21.8648 40.6844 23.8844 41.4373 26.5287 41.4373V39.6812C24.2224 39.6812 22.5853 39.0277 21.5449 38.2414Z" fill="#E73F3A"/>
</svg>
