<svg xmlns="http://www.w3.org/2000/svg" width="26" height="31" viewBox="0 0 26 31" fill="none">
  <path d="M25.1316 10.9043C24.953 11.0411 21.7998 12.7959 21.7998 16.6978C21.7998 21.2111 25.8121 22.8077 25.9322 22.8473C25.9137 22.9446 25.2948 25.0339 23.8167 27.1628C22.4988 29.0362 21.1224 30.9066 19.0285 30.9066C16.9346 30.9066 16.3957 29.7053 13.9785 29.7053C11.6228 29.7053 10.7852 30.9461 8.86994 30.9461C6.95463 30.9461 5.61823 29.2126 4.08167 27.0837C2.30185 24.5838 0.863831 20.7001 0.863831 17.0141C0.863831 11.1019 4.75603 7.96641 8.58665 7.96641C10.622 7.96641 12.3187 9.28631 13.5966 9.28631C14.8129 9.28631 16.7098 7.88733 19.0254 7.88733C19.903 7.88733 23.0562 7.96641 25.1316 10.9043ZM17.9261 5.38438C18.8837 4.26216 19.5612 2.70504 19.5612 1.14791C19.5612 0.931984 19.5427 0.713014 19.5027 0.536621C17.9446 0.594405 16.0908 1.56152 14.9731 2.84189C14.0955 3.82726 13.2764 5.38438 13.2764 6.96279C13.2764 7.20001 13.3164 7.43723 13.3349 7.51326C13.4334 7.53151 13.5935 7.5528 13.7537 7.5528C15.1517 7.5528 16.9099 6.62825 17.9261 5.38438Z" fill="white"/>
</svg>