<svg xmlns="http://www.w3.org/2000/svg" width="40" height="40" viewBox="0 0 40 40" fill="white">
  <path d="M20 1.66675C18.8949 1.66675 17.8351 2.10573 17.0537 2.88714C16.2723 3.66854 15.8333 4.72835 15.8333 5.83341C15.8337 6.64379 16.0704 7.43645 16.5145 8.11434C16.9585 8.79224 17.5906 9.32593 18.3333 9.65008V11.6667H11.6666C10.7826 11.6667 9.93474 12.0179 9.30962 12.6431C8.6845 13.2682 8.33331 14.116 8.33331 15.0001V16.1834C7.59059 16.5076 6.95852 17.0413 6.51448 17.7192C6.07045 18.397 5.83373 19.1897 5.83331 20.0001C5.83373 20.8105 6.07045 21.6031 6.51448 22.281C6.95852 22.9589 7.59059 23.4926 8.33331 23.8167V25.0001H6.66665C5.78259 25.0001 4.93474 25.3513 4.30962 25.9764C3.6845 26.6015 3.33331 27.4494 3.33331 28.3334V30.3501C2.59059 30.6742 1.95852 31.2079 1.51448 31.8858C1.07045 32.5637 0.83373 33.3564 0.833313 34.1667C0.833313 35.2718 1.2723 36.3316 2.0537 37.113C2.44061 37.4999 2.89994 37.8068 3.40547 38.0162C3.91099 38.2256 4.45281 38.3334 4.99998 38.3334C6.10505 38.3334 7.16486 37.8944 7.94626 37.113C8.72766 36.3316 9.16665 35.2718 9.16665 34.1667C9.16623 33.3564 8.92951 32.5637 8.48548 31.8858C8.04144 31.2079 7.40937 30.6742 6.66665 30.3501V28.3334H13.3333V30.3501C12.5906 30.6742 11.9585 31.2079 11.5145 31.8858C11.0704 32.5637 10.8337 33.3564 10.8333 34.1667C10.8333 35.2718 11.2723 36.3316 12.0537 37.113C12.8351 37.8944 13.8949 38.3334 15 38.3334C15.5472 38.3334 16.089 38.2256 16.5945 38.0162C17.1 37.8068 17.5593 37.4999 17.9463 37.113C18.3332 36.7261 18.6401 36.2668 18.8495 35.7613C19.0589 35.2557 19.1666 34.7139 19.1666 34.1667C19.1662 33.3564 18.9295 32.5637 18.4855 31.8858C18.0414 31.2079 17.4094 30.6742 16.6666 30.3501V28.3334C16.6666 27.4494 16.3155 26.6015 15.6903 25.9764C15.0652 25.3513 14.2174 25.0001 13.3333 25.0001H11.6666V23.8167C12.4094 23.4926 13.0414 22.9589 13.4855 22.281C13.9295 21.6031 14.1662 20.8105 14.1666 20.0001C14.1662 19.1897 13.9295 18.397 13.4855 17.7192C13.0414 17.0413 12.4094 16.5076 11.6666 16.1834V15.0001H28.3333V16.1834C27.5906 16.5076 26.9585 17.0413 26.5145 17.7192C26.0704 18.397 25.8337 19.1897 25.8333 20.0001C25.8337 20.8105 26.0704 21.6031 26.5145 22.281C26.9585 22.9589 27.5906 23.4926 28.3333 23.8167V25.0001H26.6666C25.7826 25.0001 24.9347 25.3513 24.3096 25.9764C23.6845 26.6015 23.3333 27.4494 23.3333 28.3334V30.3501C22.5906 30.6742 21.9585 31.2079 21.5145 31.8858C21.0704 32.5637 20.8337 33.3564 20.8333 34.1667C20.8333 35.2718 21.2723 36.3316 22.0537 37.113C22.8351 37.8944 23.8949 38.3334 25 38.3334C26.105 38.3334 27.1649 37.8944 27.9463 37.113C28.7277 36.3316 29.1666 35.2718 29.1666 34.1667C29.1662 33.3564 28.9295 32.5637 28.4855 31.8858C28.0414 31.2079 27.4094 30.6742 26.6666 30.3501V28.3334H33.3333V30.3501C32.5906 30.6742 31.9585 31.2079 31.5145 31.8858C31.0704 32.5637 30.8337 33.3564 30.8333 34.1667C30.8333 35.2718 31.2723 36.3316 32.0537 37.113C32.8351 37.8944 33.8949 38.3334 35 38.3334C36.105 38.3334 37.1649 37.8944 37.9463 37.113C38.7277 36.3316 39.1666 35.2718 39.1666 34.1667C39.1662 33.3564 38.9295 32.5637 38.4855 31.8858C38.0414 31.2079 37.4094 30.6742 36.6666 30.3501V28.3334C36.6666 27.4494 36.3155 26.6015 35.6903 25.9764C35.0652 25.3513 34.2174 25.0001 33.3333 25.0001H31.6666V23.8167C32.4094 23.4926 33.0414 22.9589 33.4855 22.281C33.9295 21.6031 34.1662 20.8105 34.1666 20.0001C34.1662 19.1897 33.9295 18.397 33.4855 17.7192C33.0414 17.0413 32.4094 16.5076 31.6666 16.1834V15.0001C31.6666 14.116 31.3155 13.2682 30.6903 12.6431C30.0652 12.0179 29.2174 11.6667 28.3333 11.6667H21.6666V9.65008C22.4094 9.32593 23.0414 8.79224 23.4855 8.11434C23.9295 7.43645 24.1662 6.64379 24.1666 5.83341C24.1666 4.72835 23.7277 3.66854 22.9463 2.88714C22.1649 2.10573 21.105 1.66675 20 1.66675ZM20 4.16675C20.442 4.16675 20.8659 4.34234 21.1785 4.6549C21.4911 4.96746 21.6666 5.39139 21.6666 5.83341C21.6666 6.27544 21.4911 6.69936 21.1785 7.01193C20.8659 7.32449 20.442 7.50008 20 7.50008C19.558 7.50008 19.134 7.32449 18.8215 7.01193C18.5089 6.69936 18.3333 6.27544 18.3333 5.83341C18.3333 5.39139 18.5089 4.96746 18.8215 4.6549C19.134 4.34234 19.558 4.16675 20 4.16675ZM9.99998 18.3334C10.442 18.3334 10.8659 18.509 11.1785 18.8216C11.4911 19.1341 11.6666 19.5581 11.6666 20.0001C11.6666 20.4421 11.4911 20.866 11.1785 21.1786C10.8659 21.4912 10.442 21.6667 9.99998 21.6667C9.55795 21.6667 9.13403 21.4912 8.82147 21.1786C8.50891 20.866 8.33331 20.4421 8.33331 20.0001C8.33331 19.5581 8.50891 19.1341 8.82147 18.8216C9.13403 18.509 9.55795 18.3334 9.99998 18.3334ZM30 18.3334C30.442 18.3334 30.8659 18.509 31.1785 18.8216C31.4911 19.1341 31.6666 19.5581 31.6666 20.0001C31.6666 20.4421 31.4911 20.866 31.1785 21.1786C30.8659 21.4912 30.442 21.6667 30 21.6667C29.558 21.6667 29.134 21.4912 28.8215 21.1786C28.5089 20.866 28.3333 20.4421 28.3333 20.0001C28.3333 19.5581 28.5089 19.1341 28.8215 18.8216C29.134 18.509 29.558 18.3334 30 18.3334ZM4.99998 32.5001C5.44201 32.5001 5.86593 32.6757 6.17849 32.9882C6.49105 33.3008 6.66665 33.7247 6.66665 34.1667C6.66665 34.6088 6.49105 35.0327 6.17849 35.3453C5.86593 35.6578 5.44201 35.8334 4.99998 35.8334C4.55795 35.8334 4.13403 35.6578 3.82147 35.3453C3.50891 35.0327 3.33331 34.6088 3.33331 34.1667C3.33331 33.7247 3.50891 33.3008 3.82147 32.9882C4.13403 32.6757 4.55795 32.5001 4.99998 32.5001ZM15 32.5001C15.442 32.5001 15.8659 32.6757 16.1785 32.9882C16.4911 33.3008 16.6666 33.7247 16.6666 34.1667C16.6666 34.6088 16.4911 35.0327 16.1785 35.3453C15.8659 35.6578 15.442 35.8334 15 35.8334C14.558 35.8334 14.134 35.6578 13.8215 35.3453C13.5089 35.0327 13.3333 34.6088 13.3333 34.1667C13.3333 33.7247 13.5089 33.3008 13.8215 32.9882C14.134 32.6757 14.558 32.5001 15 32.5001ZM25 32.5001C25.442 32.5001 25.8659 32.6757 26.1785 32.9882C26.4911 33.3008 26.6666 33.7247 26.6666 34.1667C26.6666 34.6088 26.4911 35.0327 26.1785 35.3453C25.8659 35.6578 25.442 35.8334 25 35.8334C24.558 35.8334 24.134 35.6578 23.8215 35.3453C23.5089 35.0327 23.3333 34.6088 23.3333 34.1667C23.3333 33.7247 23.5089 33.3008 23.8215 32.9882C24.134 32.6757 24.558 32.5001 25 32.5001ZM35 32.5001C35.442 32.5001 35.8659 32.6757 36.1785 32.9882C36.4911 33.3008 36.6666 33.7247 36.6666 34.1667C36.6666 34.6088 36.4911 35.0327 36.1785 35.3453C35.8659 35.6578 35.442 35.8334 35 35.8334C34.558 35.8334 34.134 35.6578 33.8215 35.3453C33.5089 35.0327 33.3333 34.6088 33.3333 34.1667C33.3333 33.7247 33.5089 33.3008 33.8215 32.9882C34.134 32.6757 34.558 32.5001 35 32.5001Z" fill="currentColor"/>
</svg>