<svg xmlns="http://www.w3.org/2000/svg" width="40" height="40" viewBox="0 0 40 40" fill="none">
  <path d="M20 2.9297e-05C14.2 2.9297e-05 7.37627 1.38003 1.55002 4.38128L0.64502 4.84253V5.87128C0.64502 12.0563 0.76127 28.5613 19.1463 39.485L20 40L20.8538 39.485C39.2388 28.5613 39.355 12.0563 39.355 5.87128V4.85628L38.4563 4.38753C32.7013 1.37253 25.8 -0.0012207 20 -0.0012207V2.9297e-05ZM20 3.35378C24.9613 3.35378 30.9763 4.62253 35.9563 7.01878C35.9425 13.4975 35.26 26.2575 20 35.8988C4.74002 26.2575 4.05002 13.4975 4.04377 7.01878C9.10252 4.61753 15.0388 3.35378 20 3.35378ZM28.3913 12.63C27.955 12.6438 27.585 12.9163 27.3763 13.125L18.4113 22.4288L15.0513 18.405C13.4625 16.5638 11.2825 17.9888 10.7813 18.32L18.575 27.37L29.2188 12.955C28.9972 12.7416 28.7001 12.6248 28.3925 12.63H28.3913Z" fill="currentColor"/>
</svg>