<svg xmlns="http://www.w3.org/2000/svg" width="36" height="36" viewBox="0 0 36 36" fill="none">
  <path d="M33.8333 18.0001H30.315M30.315 18.0001C30.315 21.2664 29.0182 24.3982 26.7086 26.7079C24.3989 29.0175 21.2663 30.3151 18 30.3151M30.315 18.0001C30.315 14.7337 29.0182 11.6003 26.7086 9.29064C24.3989 6.98097 21.2663 5.68508 18 5.68508M18 2.16675V5.68508M18 5.68508C14.7338 5.68508 11.6014 6.98088 9.29194 9.29039C6.98243 11.5999 5.68496 14.7323 5.68496 17.9984C5.68496 21.2646 6.98243 24.3969 9.29194 26.7064C11.6014 29.0159 14.7338 30.3151 18 30.3151M2.16663 18.0001H5.68496M18 33.8334V30.3151" stroke="currentColor" stroke-width="2.5" stroke-miterlimit="10" stroke-linecap="round"/>
  <path d="M17.9999 25.0367C19.8662 25.0367 21.656 24.2954 22.9756 22.9757C24.2952 21.6561 25.0366 19.8663 25.0366 18C25.0366 16.1338 24.2952 14.344 22.9756 13.0244C21.656 11.7047 19.8662 10.9634 17.9999 10.9634C16.1337 10.9634 14.3439 11.7047 13.0242 13.0244C11.7046 14.344 10.9633 16.1338 10.9633 18C10.9633 19.8663 11.7046 21.6561 13.0242 22.9757C14.3439 24.2954 16.1337 25.0367 17.9999 25.0367Z" stroke="currentColor" stroke-width="2.5" stroke-miterlimit="10" stroke-linecap="round"/>
</svg>