<svg xmlns="http://www.w3.org/2000/svg" width="40" height="40" viewBox="0 0 40 40" fill="none">
  <path d="M34.9609 33.5353C36.237 34.1603 37.2917 35.0392 38.125 36.172C38.9583 37.3048 39.4857 38.5809 39.707 40.0001H37.5586C37.4154 39.2579 37.1484 38.5678 36.7578 37.9298C36.3672 37.2918 35.8919 36.7449 35.332 36.2892C34.7721 35.8335 34.1406 35.4689 33.4375 35.1954C32.7344 34.922 32.0052 34.7918 31.25 34.8048C30.4818 34.8048 29.7526 34.935 29.0625 35.1954C28.3724 35.4559 27.7409 35.8139 27.168 36.2697C26.5951 36.7254 26.1198 37.2788 25.7422 37.9298C25.3646 38.5809 25.0977 39.271 24.9414 40.0001H22.793C23.0013 38.5939 23.5221 37.3243 24.3555 36.1915C25.1888 35.0587 26.25 34.1733 27.5391 33.5353C26.7969 32.9493 26.224 32.2397 25.8203 31.4064C25.4167 30.573 25.2083 29.6876 25.1953 28.7501C25.1953 28.1642 25.2734 27.5978 25.4297 27.0509C25.5859 26.504 25.8203 25.9897 26.1328 25.5079C26.4453 25.0262 26.8164 24.5965 27.2461 24.2189C27.6758 23.8413 28.1576 23.5223 28.6914 23.2618C28.3398 22.754 27.9362 22.3048 27.4805 21.9142C27.0247 21.5236 26.5299 21.1785 25.9961 20.879C25.4622 20.5795 24.9023 20.3647 24.3164 20.2345C23.7305 20.1043 23.125 20.0262 22.5 20.0001C21.4583 20.0001 20.4622 20.2019 19.5117 20.6056C18.5612 21.0092 17.7344 21.6017 17.0312 22.3829C17.3438 23.2293 17.5 24.1017 17.5 25.0001C17.5 26.198 17.2331 27.3243 16.6992 28.379C16.1654 29.4337 15.4167 30.3191 14.4531 31.0353C15.2995 31.465 16.0612 31.9923 16.7383 32.6173C17.4154 33.2423 18.0013 33.9454 18.4961 34.7267C18.9909 35.5079 19.362 36.3413 19.6094 37.2267C19.8568 38.1121 19.987 39.0366 20 40.0001H17.5C17.5 38.9715 17.3047 38.0014 16.9141 37.09C16.5234 36.1785 15.9896 35.3842 15.3125 34.7072C14.6354 34.0301 13.8346 33.4897 12.9102 33.0861C11.9857 32.6824 11.0156 32.4871 10 32.5001C8.95833 32.5001 7.98828 32.6954 7.08984 33.0861C6.19141 33.4767 5.39714 34.0105 4.70703 34.6876C4.01693 35.3647 3.47656 36.1655 3.08594 37.09C2.69531 38.0144 2.5 38.9845 2.5 40.0001H0C0 39.0496 0.130208 38.1316 0.390625 37.2462C0.651042 36.3608 1.02214 35.5275 1.50391 34.7462C1.98568 33.965 2.5651 33.2618 3.24219 32.6368C3.91927 32.0118 4.6875 31.478 5.54688 31.0353C4.58333 30.3191 3.83464 29.4337 3.30078 28.379C2.76693 27.3243 2.5 26.198 2.5 25.0001C2.5 23.9715 2.69531 23.0014 3.08594 22.09C3.47656 21.1785 4.01042 20.3842 4.6875 19.7072C5.36458 19.0301 6.15885 18.4897 7.07031 18.0861C7.98177 17.6824 8.95833 17.4871 10 17.5001C11.1068 17.5001 12.1549 17.7345 13.1445 18.2032C14.1341 18.672 14.9935 19.323 15.7227 20.1564C16.0612 19.8309 16.4258 19.5379 16.8164 19.2775C17.207 19.017 17.6172 18.7697 18.0469 18.5353C17.0833 17.8191 16.3346 16.9337 15.8008 15.879C15.2669 14.8243 15 13.698 15 12.5001C15 11.4715 15.1953 10.5014 15.5859 9.58997C15.9766 8.67851 16.5104 7.88424 17.1875 7.20715C17.8646 6.53007 18.6589 5.98971 19.5703 5.58606C20.4818 5.18241 21.4583 4.9871 22.5 5.00012C23.5286 5.00012 24.4987 5.19543 25.4102 5.58606C26.3216 5.97668 27.1159 6.51054 27.793 7.18762C28.4701 7.86471 29.0104 8.66549 29.4141 9.58997C29.8177 10.5144 30.013 11.4845 30 12.5001C30 13.698 29.7331 14.8243 29.1992 15.879C28.6654 16.9337 27.9167 17.8191 26.9531 18.5353C27.8646 19.017 28.6849 19.603 29.4141 20.2931C30.1432 20.9832 30.7617 21.784 31.2695 22.6954C32.1029 22.6954 32.8841 22.8517 33.6133 23.1642C34.3424 23.4767 34.987 23.9129 35.5469 24.4728C36.1068 25.0327 36.5365 25.6707 36.8359 26.3868C37.1354 27.103 37.2917 27.8907 37.3047 28.7501C37.3047 29.6876 37.1029 30.573 36.6992 31.4064C36.2956 32.2397 35.7161 32.9493 34.9609 33.5353ZM10 30.0001C10.6901 30.0001 11.3346 29.8699 11.9336 29.6095C12.5326 29.3491 13.0664 28.991 13.5352 28.5353C14.0039 28.0795 14.362 27.5522 14.6094 26.9532C14.8568 26.3543 14.987 25.7032 15 25.0001C15 24.31 14.8698 23.6655 14.6094 23.0665C14.349 22.4676 13.9909 21.9337 13.5352 21.465C13.0794 20.9962 12.5521 20.6381 11.9531 20.3907C11.3542 20.1434 10.7031 20.0131 10 20.0001C9.3099 20.0001 8.66536 20.1303 8.06641 20.3907C7.46745 20.6512 6.93359 21.0092 6.46484 21.465C5.99609 21.9207 5.63802 22.448 5.39062 23.047C5.14323 23.646 5.01302 24.297 5 25.0001C5 25.6902 5.13021 26.3348 5.39062 26.9337C5.65104 27.5327 6.00911 28.0665 6.46484 28.5353C6.92057 29.004 7.44792 29.3621 8.04688 29.6095C8.64583 29.8569 9.29688 29.9871 10 30.0001ZM17.5 12.5001C17.5 13.1902 17.6302 13.8348 17.8906 14.4337C18.151 15.0327 18.5091 15.5665 18.9648 16.0353C19.4206 16.504 19.9479 16.8621 20.5469 17.1095C21.1458 17.3569 21.7969 17.4871 22.5 17.5001C23.1901 17.5001 23.8346 17.3699 24.4336 17.1095C25.0326 16.8491 25.5664 16.491 26.0352 16.0353C26.5039 15.5795 26.862 15.0522 27.1094 14.4532C27.3568 13.8543 27.487 13.2032 27.5 12.5001C27.5 11.81 27.3698 11.1655 27.1094 10.5665C26.849 9.96757 26.4909 9.43372 26.0352 8.96497C25.5794 8.49622 25.0521 8.13814 24.4531 7.89075C23.8542 7.64335 23.2031 7.51314 22.5 7.50012C21.8099 7.50012 21.1654 7.63033 20.5664 7.89075C19.9674 8.15116 19.4336 8.50924 18.9648 8.96497C18.4961 9.42069 18.138 9.94804 17.8906 10.547C17.6432 11.146 17.513 11.797 17.5 12.5001ZM31.25 24.8048C30.7031 24.8048 30.1953 24.909 29.7266 25.1173C29.2578 25.3256 28.8411 25.6056 28.4766 25.9572C28.112 26.3087 27.8255 26.7254 27.6172 27.2072C27.4089 27.6889 27.3047 28.2032 27.3047 28.7501C27.3047 29.297 27.4089 29.8048 27.6172 30.2736C27.8255 30.7423 28.1055 31.159 28.457 31.5236C28.8086 31.8881 29.2253 32.1746 29.707 32.3829C30.1888 32.5913 30.7031 32.6954 31.25 32.6954C31.7969 32.6954 32.3047 32.5913 32.7734 32.3829C33.2422 32.1746 33.6589 31.8947 34.0234 31.5431C34.388 31.1915 34.6745 30.7749 34.8828 30.2931C35.0911 29.8113 35.1953 29.297 35.1953 28.7501C35.1953 28.2032 35.0911 27.6954 34.8828 27.2267C34.6745 26.7579 34.3945 26.3413 34.043 25.9767C33.6914 25.6121 33.2747 25.3256 32.793 25.1173C32.3112 24.909 31.7969 24.8048 31.25 24.8048Z" fill="currentColor"/>
</svg>