<svg xmlns="http://www.w3.org/2000/svg" width="31" height="34" viewBox="0 0 31 34" fill="none">
  <path d="M22.4369 21.8393C26.2856 19.6882 29.2288 18.0492 29.4803 17.9212C30.2853 17.4858 31.1154 16.3334 29.4803 15.4371C28.9521 15.1555 26.1095 13.5677 22.4369 11.519L17.3807 16.692L22.4369 21.8393Z" fill="#FFD400"/>
  <path d="M17.3807 16.6919L1.23114 33.2606C1.60847 33.3118 2.0361 33.2094 2.53921 32.9277C3.59572 32.3387 14.8149 26.0902 22.4369 21.8392L17.3807 16.6919Z" fill="#FF3333"/>
  <path d="M17.3807 16.692L22.4369 11.519C22.4369 11.519 3.67113 1.09638 2.53915 0.481772C2.11152 0.225687 1.63357 0.148862 1.20593 0.225687L17.3807 16.692Z" fill="#48FF48"/>
  <path d="M17.3807 16.6919L1.20598 0.225586C0.551948 0.379237 -0.00146484 0.968234 -0.00146484 2.17183C-0.00146484 4.09247 -0.00146484 29.701 -0.00146484 31.3143C-0.00146484 32.4155 0.426173 33.2093 1.23114 33.2862L17.3807 16.6919Z" fill="#3BCCFF"/>
</svg>