<svg xmlns="http://www.w3.org/2000/svg" width="40" height="40" viewBox="0 0 40 40" fill="none">
  <path fill-rule="evenodd" clip-rule="evenodd" d="M21.9737 11.8282C17.7719 10.4276 13.2293 10.4276 9.0275 11.8282C8.56746 11.9815 8.07022 11.7329 7.91688 11.2729C7.76353 10.8128 8.01215 10.3156 8.47219 10.1623C13.0344 8.64153 17.9668 8.64153 22.529 10.1623C22.989 10.3156 23.2377 10.8128 23.0843 11.2729C22.931 11.7329 22.4337 11.9815 21.9737 11.8282Z" fill="currentColor"/>
  <path fill-rule="evenodd" clip-rule="evenodd" d="M23.041 7.30164C18.2325 5.24085 12.7895 5.24085 7.98096 7.30164C7.53524 7.49266 7.01907 7.28619 6.82805 6.84048C6.63703 6.39477 6.8435 5.8786 7.28921 5.68758C12.5395 3.43747 18.4825 3.43747 23.7327 5.68758C24.1784 5.8786 24.3849 6.39477 24.1939 6.84048C24.0028 7.28619 23.4867 7.49266 23.041 7.30164Z" fill="currentColor"/>
  <path fill-rule="evenodd" clip-rule="evenodd" d="M23.3774 16.1262H6.5005C4.98478 16.1262 3.75605 17.3549 3.75605 18.8706V31.247C3.75605 32.7627 4.98478 33.9915 6.5005 33.9915H23.3774C24.8931 33.9915 26.1218 32.7627 26.1218 31.247V18.8706C26.1218 17.3549 24.8931 16.1262 23.3774 16.1262ZM6.5005 14.3701C4.01494 14.3701 2 16.3851 2 18.8706V31.247C2 33.7326 4.01494 35.7475 6.5005 35.7475H23.3774C25.8629 35.7475 27.8779 33.7326 27.8779 31.247V18.8706C27.8779 16.3851 25.8629 14.3701 23.3774 14.3701H6.5005Z" fill="currentColor"/>
  <path fill-rule="evenodd" clip-rule="evenodd" d="M35.4933 19.072L30.9928 21.8045C30.8452 21.8941 30.7551 22.0543 30.7551 22.2269V27.8917C30.7551 28.0643 30.8452 28.2245 30.9928 28.3141L35.4933 31.0466C35.8226 31.2465 36.244 31.0094 36.244 30.6241V19.4945C36.244 19.1092 35.8226 18.8721 35.4933 19.072ZM30.0814 20.3034C29.4094 20.7115 28.999 21.4407 28.999 22.2269V27.8917C28.999 28.6779 29.4094 29.4071 30.0814 29.8152L34.5819 32.5476C36.0816 33.4581 38 32.3785 38 30.6241V19.4945C38 17.7401 36.0816 16.6605 34.5819 17.571L30.0814 20.3034Z" fill="currentColor"/>
  <path d="M8.93744 22.6961L7.71387 24.3276V25.5512L9.3453 27.9983C10.161 28.4062 11.874 29.2219 12.2003 29.2219C12.5266 29.2219 14.5115 29.4938 15.4632 29.6297C16.5508 29.3578 18.8076 28.814 19.1339 28.814C19.5416 28.814 21.2914 27.0643 21.5807 26.775C21.9886 26.3672 22.2608 25.6871 22.3967 25.1433L21.9889 23.5119L20.7653 22.2883L17.5025 20.6569C16.4148 20.5209 14.158 20.6569 13.8317 20.6569C13.5054 20.6569 11.5205 21.2007 10.5689 21.4726L8.93744 22.6961Z" stroke="currentColor" stroke-width="0.815716"/>
  <path d="M14.7919 27.5743C16.2632 27.5743 17.4558 26.3816 17.4558 24.9103C17.4558 23.439 16.2632 22.2463 14.7919 22.2463C13.3206 22.2463 12.1279 23.439 12.1279 24.9103C12.1279 26.3816 13.3206 27.5743 14.7919 27.5743Z" fill="currentColor"/>
  <path fill-rule="evenodd" clip-rule="evenodd" d="M9.96497 22.8768C8.88971 23.6895 8.51337 24.5826 8.51337 25.0594H6.75732C6.75732 23.8486 7.56237 22.4915 8.90613 21.4758C10.2848 20.4338 12.3044 19.6809 14.9487 19.6809V21.437C12.6424 21.437 11.0053 22.0905 9.96497 22.8768Z" fill="currentColor"/>
  <path fill-rule="evenodd" clip-rule="evenodd" d="M19.9198 27.2418C20.9951 26.4291 21.3714 25.536 21.3714 25.0591H23.1274C23.1274 26.2699 22.3224 27.6271 20.9786 28.6427C19.5999 29.6847 17.5804 30.4376 14.9361 30.4376V28.6816C17.2424 28.6816 18.8795 28.0281 19.9198 27.2418Z" fill="currentColor"/>
  <path fill-rule="evenodd" clip-rule="evenodd" d="M19.9198 22.8768C20.9951 23.6895 21.3714 24.5826 21.3714 25.0594H23.1274C23.1274 23.8486 22.3224 22.4915 20.9786 21.4758C19.5999 20.4338 17.5804 19.6809 14.9361 19.6809V21.437C17.2424 21.437 18.8795 22.0905 19.9198 22.8768Z" fill="currentColor"/>
  <path fill-rule="evenodd" clip-rule="evenodd" d="M9.96497 27.2413C8.88971 26.4286 8.51337 25.5355 8.51337 25.0586H6.75732C6.75732 26.2694 7.56237 27.6266 8.90613 28.6422C10.2848 29.6843 12.3044 30.4372 14.9487 30.4372V28.6811C12.6424 28.6811 11.0053 28.0276 9.96497 27.2413Z" fill="currentColor"/>
</svg>